<?xml version="1.0" encoding="UTF-8"?>
<svg width="1558px" height="391px" viewBox="0 0 1558 391" version="1.1" xmlns="http://www.w3.org/2000/svg" xmlns:xlink="http://www.w3.org/1999/xlink">
    <title>ycorp_logo_black</title>
    <g id="Logo" stroke="none" stroke-width="1" fill="none" fill-rule="evenodd">
        <g id="ycorp_logo_black" fill-rule="nonzero">
            <g id="Group">
                <path d="M0,0 L112.77,195.33 L0,390.66 L225.55,390.66 L451.1,0 L0,0 Z M75.18,43.41 L200.49,43.41 L137.84,151.93 L75.19,43.41 L75.18,43.41 Z M75.18,347.26 L137.83,238.74 L200.48,347.26 L75.17,347.26 L75.18,347.26 Z M225.55,303.85 L162.9,195.33 L225.55,86.81 L288.2,195.33 L225.55,303.85 L225.55,303.85 Z M313.26,151.93 L250.61,43.41 L375.92,43.41 L313.27,151.93 L313.26,151.93 Z" id="Shape" fill="#F48E29"></path>
                <g transform="translate(482.000000, 98.000000)" fill="#1B1B1B">
                    <polygon id="Path" points="228.05 5.74 168.76 5.74 117.11 76.25 63.41 5.74 0.41 5.74 90.41 119.44 90.41 191.04 143.35 191.04 143.35 117.65"></polygon>
                    <path d="M385.02,134.12 C379.73,137.65 373.55,140.65 366.49,143.12 C359.43,145.59 351.31,146.83 342.13,146.83 C333.84,146.83 325.89,145.82 318.31,143.79 C310.72,141.76 303.88,138.67 297.79,134.52 C291.7,130.38 286.93,125.26 283.49,119.17 C280.05,113.08 278.33,105.98 278.33,97.86 C278.33,89.74 279.96,82.6 283.23,76.42 C286.5,70.24 290.91,65.08 296.46,60.94 C302.03,56.79 308.2,53.66 314.99,51.54 C321.78,49.43 328.8,48.37 336.04,48.37 C345.21,48.37 353.28,49.34 360.26,51.28 C367.23,53.22 373.4,55.78 378.79,58.96 C384.17,62.13 388.89,65.49 392.95,69.02 L422.86,29.05 C416.33,23.59 408.56,18.73 399.57,14.49 C390.57,10.26 380.91,6.95 370.58,4.57 C360.26,2.19 349.54,0.99 338.42,0.99 C322.36,0.99 307.41,3.33 293.56,8.01 C279.7,12.69 267.66,19.31 257.43,27.86 C247.19,36.42 239.12,46.57 233.21,58.3 C227.29,70.04 224.34,83.05 224.34,97.34 C224.34,111.63 227.2,124.92 232.94,136.65 C238.67,148.39 246.75,158.53 257.16,167.09 C267.57,175.65 279.7,182.22 293.56,186.81 C307.41,191.4 322.45,193.69 338.69,193.69 C350.69,193.69 362.21,192.14 373.24,189.06 C384.27,185.98 394.15,182.14 402.89,177.55 C411.62,172.96 418.54,168.55 423.67,164.31 L399.31,124.34 C395.07,127.34 390.31,130.61 385.01,134.13 L385.02,134.12 Z" id="Path"></path>
                    <path d="M629.74,28.64 C619.42,19.9 607.24,13.11 593.21,8.26 C579.19,3.41 563.78,0.98 547.02,0.98 C530.26,0.98 514.59,3.41 500.56,8.26 C486.53,13.11 474.39,19.86 464.16,28.51 C453.93,37.16 445.94,47.31 440.21,58.95 C434.47,70.6 431.61,83.39 431.61,97.33 C431.61,111.27 434.43,123.85 440.08,135.58 C445.72,147.32 453.67,157.51 463.9,166.16 C474.13,174.81 486.31,181.56 500.43,186.41 C514.54,191.26 530.07,193.69 547.02,193.69 C563.97,193.69 579.18,191.26 593.21,186.41 C607.24,181.56 619.42,174.76 629.74,166.03 C640.06,157.29 648.04,147.06 653.69,135.32 C659.33,123.59 662.16,110.83 662.16,97.07 C662.16,83.31 659.33,70.86 653.69,59.21 C648.04,47.56 640.05,37.37 629.74,28.64 L629.74,28.64 Z M604.19,116.13 C601.19,121.95 596.95,127.03 591.49,131.35 C586.02,135.68 579.45,139.03 571.77,141.41 C564.09,143.79 555.84,144.98 547.03,144.98 C538.22,144.98 529.73,143.79 522.14,141.41 C514.55,139.03 507.98,135.68 502.42,131.35 C496.86,127.03 492.58,121.95 489.58,116.13 C486.58,110.31 485.08,104.04 485.08,97.33 C485.08,90.62 486.58,84.36 489.58,78.54 C492.58,72.72 496.86,67.64 502.42,63.32 C507.98,59 514.55,55.64 522.14,53.26 C529.73,50.88 538.02,49.68 547.03,49.68 C556.04,49.68 564.1,50.87 571.77,53.26 C579.45,55.64 586.02,58.99 591.49,63.32 C596.95,67.65 601.19,72.72 604.19,78.54 C607.19,84.36 608.69,90.63 608.69,97.33 C608.69,104.03 607.19,110.3 604.19,116.13 Z" id="Shape"></path>
                    <path d="M828.4,120.89 C838.98,115.42 847.36,107.92 853.55,98.39 C859.73,88.86 862.81,78.01 862.81,65.83 C862.81,53.65 859.99,42.58 854.34,33.67 C848.69,24.76 840.52,17.88 829.85,13.02 C819.17,8.17 805.98,5.74 790.27,5.74 L687.3,5.74 L687.3,191.04 L736.54,191.04 L736.54,129.1 L769.01,129.1 L813.31,191.04 L873.13,191.04 L823.93,122.84 C825.42,122.2 826.96,121.63 828.4,120.89 Z M736.55,47.83 L784.46,47.83 C789.4,47.83 793.82,48.62 797.7,50.21 C801.58,51.8 804.72,54.18 807.09,57.35 C809.47,60.53 810.67,64.41 810.67,69 C810.67,73.59 809.52,77.83 807.23,81.18 C804.93,84.53 801.93,87.09 798.23,88.86 C794.53,90.63 790.38,91.51 785.79,91.51 L736.55,91.51 L736.55,47.83 Z" id="Shape"></path>
                    <path d="M1065.97,35.92 C1059.88,26.57 1051.72,19.2 1041.48,13.82 C1031.24,8.44 1019.68,5.75 1006.81,5.75 L898.54,5.75 L898.54,191.05 L950.95,191.05 L950.95,135.46 L1002.57,135.46 C1016.16,135.46 1028.46,132.55 1039.49,126.72 C1050.52,120.9 1059.22,112.92 1065.57,102.77 C1071.92,92.62 1075.1,81.11 1075.1,68.22 C1075.1,56.05 1072.06,45.28 1065.97,35.93 L1065.97,35.92 Z M1016.47,80.53 C1013.91,83.8 1010.56,86.22 1006.41,87.81 C1002.27,89.4 997.46,90.19 991.98,90.19 L950.16,90.19 L950.16,51.01 L991.98,51.01 C997.45,51.01 1002.26,51.67 1006.41,53 C1010.56,54.32 1013.91,56.31 1016.47,58.96 C1019.03,61.61 1020.31,64.96 1020.31,69.02 C1020.31,73.44 1019.02,77.27 1016.47,80.54 L1016.47,80.53 Z" id="Shape"></path>
                </g>
            </g>
        </g>
    </g>
</svg>